<?xml version='1.0' encoding='utf-8'?>
<svg xmlns="http://www.w3.org/2000/svg" version="1.1" id="Layer_1" x="0px" y="0px" viewBox="0 0 2560 1462.5" style="enable-background:new 0 0 2560 1462.5;"> <path d="M2557.6,1135.8c-1.7,1.1-1,3.3-1,5c-2.6,0.7-5.4,0.8-8.1,0.6c-0.5-0.8-1.3-1.1-2.1-1.4c-0.1,0.4-0.3,1.2-0.4,1.7 c-1.9-1.3-0.2-1-1-1.8c0.1,4.5-0.7,4.3-0.2,7.7c-0.5,0.5-0.9,1.1-1.3,1.7c-1.8,0.7-3.6,1.6-5.3,2.4c0.1,0.4,0.2,1.1,0.2,1.5 c-2.4,1.2-5.2,2.2-7.9,1.2c-0.2-1.5-1.2-2.9-0.9-4.5c0.4-2.2-0.1-4.3-0.5-6.4c-1.2-0.2-2.5-0.4-3.7-0.5c0-0.7,0-1.4,0-2.1 c0.5,0.2,1.1,0.4,1.7,0.5c-0.7-1.8-2.5-2.6-3.8-3.7c-0.8-4.4,0.4-9-0.8-13.4c-1-0.3-2.1-0.6-3.1-0.8c0-1.4,0.1-2.7,0.1-4.1 c-0.8-1.9-0.3-4.1-0.5-6.1c-3.1-0.6-6.3-0.6-9.4-1.4c-3.8,1.1-7.8,0.5-11.6,0.9c-0.3-1.1-0.7-2.2-1.3-3.2c-1,0-19.4-0.3-22.3,0.5 c0,1.3,0,2.6-0.1,3.8c-0.4,0.8-1.4,0.5-2,0.6c-2.2,0-4.5,0-6.7,0.4c-0.5,1.9-0.5,3.8-0.4,5.7c-3.8,0.4-7.7-0.6-11.5,0.2 c-0.2,2.2-0.4,4.5-0.2,6.7c-0.7,3.2-0.4,6.4-0.9,9.6c1.2,2-0.5,4.2,0.3,6.3c-0.1,2.6,0.6,5.2-0.5,7.7c0.2-0.2,0.7-0.6,1-0.9 c-0.3,1.6-0.6,3.1-0.8,4.7c-0.1,0-9.8-0.3-10.6-0.4c-0.3,0.2-0.9,0.6-1.2,0.8c0-0.3-0.1-1-0.2-1.3c0,0.3-0.1,0.8-0.1,1 c-1.2,0-2.4-0.1-3.6-0.1c-0.2,1.3-0.4,2.6-0.5,3.8c-0.3,0-0.8,0.1-1,0.2c0.4,0.6,0.7,1.1,1.2,1.7c-0.6,0-1.7,0-2.3,0 c0.7,0.1,1.5,0.2,2.2,0.3c-0.6,0.9-1.7,1.2-2.6,0.9c-3.7-0.7-7.5,0-11.3-0.5c-0.6-1.3,0.1-2.7,0.3-4c-0.2-0.2-0.6-0.6-0.7-0.8 c0.1-0.2,0.2-0.7,0.2-0.9c-0.3-4.1-0.1-8.3-0.2-12.5c0,0.3-0.1,0.9-0.2,1.2c-0.9-1.7-2.8-2.2-4.5-2.2c0.4-3,0-6.1-0.7-9 c0.5-7.9-0.6-47.7-0.9-50.1c-0.8-0.8-2.2-0.8-3-1.6c-2.1,1.3-17.7,0.8-19.8,0.7c-0.1,2,0.3,4,0.5,6.1c-0.4,1.2-1.1,2.4-1.9,3.4 c-1.1-0.6-1.5-1.9-2.2-2.8c-1.4,0-2.9,0-4.3,0.1c0.1,1.8-0.6,3.3-2,4.3c0.3,0.1,0.9,0.4,1.3,0.5c0.3-0.6,0.6-1.3,1-1.9 c0.5,0,1.4-0.1,1.9-0.1c-0.2,1.7-0.3,3.3-0.6,5c-0.7-0.4-1.4-0.9-1.8-1.6c-0.8,0.3-1.6,0.6-2.3,0.9c0,1.1,0.1,2.3,0.3,3.5 c-2.2,1.6-3.2,0.4-2.1,4.8c0.9-0.2,1.9-0.4,2.8-0.7c0.1,0.4,0.3,0.9,0.4,1.4c-1.3,0.6-2.8,1.1-4.1,1.6c0,3.2,0.8,4.7-2.3,4.8 c-11.6-0.7-6.5,2.6-8.6,11.1c0.1,2.8,1.6,2.3-2.2,4c0.2,3.1-1.7,12.2-2.4,14.7c-1.3-0.6-1.8-2.1-2.1-3.4c0.3,0,0.9,0.1,1.2,0.1 c-0.2-0.1-0.6-0.3-0.8-0.4c-0.1-0.6-0.2-1.1-0.3-1.7c-1.9-1.7-0.4-4.5-1.1-6.6c-1-0.2-2-0.3-2.9-0.4c-0.1-1-0.1-2-0.1-3 c-1.2,0-2.4-0.2-3.6,0.1c-0.3,1-0.4,2-0.6,3c-1,0-1.9,0.1-2.9,0.1c-0.1,0.9-0.1,1.8-0.2,2.8c-3.6,1-7.4,0.7-11.1,0.6 c-0.3-0.8-0.5-1.6-0.8-2.4c-0.2,0.8-0.3,1.6-0.3,2.3c-1.1,0.1-2.2,0.2-3.2,0.4c-0.8,0.6-1.4,1.3-2,2.1c0.1,3.2-0.3,6.5-0.7,9.7 c-0.4,0.1-1.2,0.2-1.6,0.3c-0.8,8-0.1,9.8-1.8,12.9c-0.8,1.1-0.1,2.4,0.2,3.6c0.6,2.4,0.5,4.9,0.4,7.4c-1,0.2-1.3,1.2-1.1,2.1 c0,0-1.9,0.9-3.6,1.7c-0.1-0.1-0.3-0.3-0.4-0.4c-0.7,1.6-3,2-4,0.3c-3.1-0.2-20.6-6.9-21.6-7.3c0,0,0,0,0,0c-3.2-1.3-6.3-2.6-9.4-4 c-1.1-0.2-0.8-0.1-1.6-0.4c0-0.1,0-0.2,0-0.3c-3.4-1.5-6.4-2.8-9.8-4.3c-0.1,0.1-0.1,0.2-0.2,0.2c-0.2-0.1-0.4-0.2-0.7-0.3 c0.1-0.1,0.1-0.1,0.2-0.2c-2.4-1-4.9-2-7.4-3c0,0-0.1,0.1-0.1,0.1c-0.8-0.3-1.5-0.6-2.3-0.9c0,0,0,0,0-0.1c-14-5.2-15.2-3.9-16-5.7 c-0.1,0-0.1-0.1-0.2-0.1c-0.1,0.1-0.2,0.1-0.4,0.2c-0.5-0.1-1-0.3-1.5-0.4c0.6-10.7-2-114.6-2-114.9c-0.9-0.8-2.2-0.9-3.3-1.3 c-0.7-5.6,0.1-93.7-0.9-97.9c-0.5,0.2-1.1,0.3-1.6,0.5c-0.7-2.5-0.9-43.6-0.2-46.1c-0.1-0.2-0.2-0.7-0.3-1c1.1-3.9-1.1-13.1,0-17.6 c-0.9-0.3-1.8-0.6-2.7-0.9c0.2-2.3,0.2-77.8-0.3-80.5c0.3-2.5,0.3-31.6-0.1-34.5c0.2-0.9,0.8-2.2-0.5-2.6c-0.2,1.5-0.6,3-1.1,4.5 c-0.4-0.2-1.2-0.6-1.5-0.8c0,0-0.1-41.4-0.1-41.4c0.3-2.1,0.4-4.3-0.1-6.4c0.4-2.2,0.5-4.3,0-6.5c0.4-2.5,0.4-5.1,0.9-7.6 c-0.6-3.6-0.4-7.4-0.9-11c-0.1-0.2-0.2-0.5-0.3-0.6c0.1-0.7,0.2-1.5,0.4-2.2c-0.3-0.2-0.9-0.7-1.2-0.9c0,0-0.2-51.3-0.2-51.3 c-0.3-1,0-68.9,0.1-69.3c-1.1-4.4,0.3-27.1,0.1-29.3c0.3-4.5-0.9-8.9-0.5-13.4c-0.7-0.5-1.5-0.9-2.2-1.3c0-17.6,0.1-35.3-0.1-52.9 c-0.1-0.2-0.2-0.7-0.3-0.9c0.5-1.4,0.4-3,0.1-4.4c0.6-2.8-0.1-5.5-0.2-8.3c0.2-0.5,0.4-1,0.6-1.5c-0.1-0.3-0.4-0.8-0.5-1.1 c0.1-0.2,0.2-0.6,0.2-0.8c-0.1-0.5-0.3-17.9-0.3-18.4c-0.7,0.5-1.6,1.2-2.1,0.2c-0.2-1.1-0.1-2.2-0.1-3.2c0.9,0,1.8,0,2.7,0 c-0.7-1.3-7.5-2.4-9.3-1.6c0.1-0.3,0.4-0.8,0.5-1.1c-0.4,0-1.1,0-1.5,0c0-1-0.4-33.8-0.2-36.2c-0.2-0.6-0.2-6.5-0.1-7.7 c-0.2-1-0.3-5.1-0.1-6.7c-0.3-2.5-0.2-27.3-0.3-29.5c0-1.2-0.8-2.2-1.4-3.2c0.8-4.5-0.3-81.4-0.5-82.6c-1.3-0.3-2.7-0.5-4-0.7 c0-0.4,0-1.1,0-1.4l-0.2,1c-0.3-0.1-0.8-0.3-1.1-0.4c0.2-0.2,0.5-0.6,0.7-0.8c0.3,0,0.6-0.1,0.9-0.3c-0.4-0.7-0.7-1.4-0.8-2.2 c0,0,0,0.1-0.1,0.1c-1.1-2.3-1.2-77.6-1.2-78.6c-1.5-0.5-3-0.7-4.4,0c-0.3-0.6-0.5-1.1-0.7-1.7c0.8-0.6,1.7,0.1,2.6,0.3 c0.3-0.5,0.5-1.1,0.5-1.8c-1.9,0.5-4,0.4-5.6,1.7c0-1-0.5-30.5-0.2-34.9c-1.5-6.9-1.9-63.7-2-66.5c-2.2-0.1-0.2,3-1.4,11.9 c0.7,1.7-0.3,3.4-0.2,5.2c0.9,1.4,0.4-0.9,0.5,40.9c0.2,1.5-1.7,2.5-0.7,3.9c0.9,1.8,0.9,3.8,0.3,5.6c0.9,0.1,1.7,0.5,2.4,1.2 c-0.6-0.2-1.3-0.4-1.9-0.6c-0.6,1.3-0.7,2.6,0.4,3.6c-0.2,0.6-0.4,1.3-0.6,1.9c-0.7,0-1.4,0.1-2,0.1c0,0.1-0.2,56.6-0.2,56.6 c-0.1,0.3-0.4,0.8-0.5,1c-0.2,0-0.6-0.1-0.8-0.2l-0.3,0.3v24.2c0.6,1.5,0.8,3.2,0.7,4.8c-0.3-0.3-0.5-0.6-0.7-1v10.6c0,0,0,0,0,0 c0,0,0,0,0,0v1.3h0.7v0.6c-0.3,0.1-0.5,0.1-0.7,0.2v2.9c0.4,0.7,0.8,1.4,1,1.9c-0.2,0.1-0.6,0.2-1,0.2v4.5c0.9,0.8,1.4,2,1.4,3.6 c0,20.3,0.1,19.3-0.3,20.5c0,0.4,0,0.8,0,1.2c-0.1-0.2-0.1-0.4-0.2-0.7c-0.3,0.6-0.8,1.2-1.3,1.6c0,0.8,0.2,28.3,0.5,29.1 c-0.1,0-0.2-0.1-0.3-0.1v2.8c0.2,0.2,0.5,0.4,0.6,0.6c0.2-0.2,0.7-0.6,0.9-0.8c-0.2,0.9-0.3,1.9-0.5,2.8c-0.4,0-0.7,0-1,0 c0,86.1,0.6,81.3-1.4,83.3c0.1,0.1,0.2,0.2,0.2,0.3c-0.1,0-0.3-0.1-0.4-0.1c-0.4,0.4-1,0.7-1.5,0.9c0,0.1,0,0.2,0,0.3 c-0.1-0.1-0.2-0.1-0.3-0.2c-0.6,0.2-1.2,0.3-1.9,0.3c-0.3,0.2-0.5,0.4-0.8,0.6v5c0.1,0.1,0.1,0.2,0.2,0.2c-0.1,0-0.1,0.1-0.2,0.1 v3.3c0.2,0,0.3,0,0.5,0c-0.5,6.8-0.5-1.7-0.5,13.5c0.1,0.1,0.3,0.2,0.4,0.2c0,1.2,0,2.3,0.1,3.5c-0.1-0.1-0.4-0.2-0.5-0.3v1.6 c0,0,0.1,0,0.1,0c0,0.1-0.1,0.1-0.1,0.2v2.6c0.2,0.3,0.5,0.6,0.7,1c-0.2,0-0.5,0.1-0.7,0.2c0,0,0,0,0,0.1v13.4 c0.2-0.1,0.4-0.2,0.5-0.2c-0.1,0.5-0.2,1-0.3,1.6c-0.1,0.1-0.1,0.1-0.2,0.2v4.9c0.3,0.3,0.6,0.6,0.9,0.9c-0.2,0.4-0.6,0.8-0.9,1.1 v5.4c0.6,0.1,1.2,0.1,1.8,0.2c-0.5,0.6-1,1.2-1.6,1.7c0,0.7,0,1.4,0.1,2.1c-0.1,0-0.2,0-0.3,0.1c0,18.7,0.4,18.9-1.3,20.7 c0.4,0,0.8-0.1,1-0.1c-0.6,0.5-1.3,0.7-2,0.9c-0.7,0.4-1.6,0.7-2.4,0.8v1.7c0.1,0,0.3,0,0.4,0c-0.1,0.1-0.3,0.3-0.4,0.4v47.9 c0.1,0.3,0.3,0.6,0.5,0.9c-0.1,0-0.3,0-0.5,0c0,66.9,0.4,63.1-1,65c-0.8,4.1-1.9,7.8-1.9,7.8c-0.4,0.5-0.8,0.9-1.3,1.3 c0,0,0,0.1,0,0.1c0,0-0.1,0-0.2,0c-0.7,0.4-0.7,0.4-5.3,1.7c-0.3,0.8-0.5,1.6-0.7,2.4c0.5,0.8,0.9,1.7,0.9,2.9 c0,207.4,2.2,200.1-5.2,200.2c-0.1,0.1-0.2,0.1-0.3,0.2c-0.1-0.1-0.4-0.2-0.6-0.2c-2.1,0.8-4.2,0.2-6-1.1c-2.6,0.4-5.3,0.3-7.8,0.8 c3.4,1.6,2.8,4.8,2.8,8.9c0.1,0,0.1,0,0.2,0c0.1,1,1.1,2.2-0.1,3c0,0-0.1-0.1-0.1-0.1v9c0.4,0.1,0.8,0.1,1.1,0.2 c-0.4,0.4-0.8,0.9-1.1,1.3c0,153,2.7,151.9-6.4,150.2c-1,0.8-2.1,1.5-3.2,2c-0.1-0.7-0.3-1.5-0.3-2.2c-2.6,0.2-5.2,0.4-7.7,0.5 c0.1,0.2,0.3,0.7,0.4,0.9c-0.9,0-1.7,0-2.6,0c0.5,1,1.1,2.1,1.6,3.2c0.2,0.2,0.7,0.5,0.9,0.6c0,0.7,0,1.3,0,2 c2.8,1.9,2.1,2.1,2.1,32c0,0,0,0,0.1,0c0,0,0,0.1-0.1,0.1c0,87.1,0.8,82.2-2,84.2c-0.6,1.3-1.7,2.3-3.2,2.7c0,0.1,0,0.1,0,0.2 c-0.5,0.1-1.5,0.3-1.9,0.4c0-0.2,0-0.3,0-0.5c-1.7-0.2-2.9-1-3.6-2.1c0,0.1,0,0.2,0,0.3c-0.5,0.2-0.9,0.4-1.3,0.7 c-0.6-2.8-1.5-5.7-1.5-8.6c0.1-0.1,0.4-0.3,0.6-0.5c-0.3-0.1-0.8-0.2-1.1-0.3c-0.3-5.9-1.8-7.1-5.4-24.1 c-9.3-5.2-54.9-28.2-59.3-29.5c-0.5,0.2-0.9,0.5-1.3,0.7c0.3,1,0.6,2,0.9,3.1c-0.8-0.4-1.5-0.9-2.2-1.3c0-2-0.1-4-0.1-5.9 c-0.9-0.3-1.7-0.5-2.6-0.7c-0.3-0.5-0.6-0.9-0.8-1.4c1.1-0.3,2.2-0.6,3.4-0.9c0-1.5-0.2-2.9-0.6-4.3c-1.2-0.3-2.8-0.6-2.3-2.2 c1-0.2,2-0.4,3-0.7c-0.2-1.4-0.3-2.9-0.3-4.3c-0.9-0.1-1.7-0.2-2.5-0.2c-0.2-0.6-0.5-1.2-0.4-1.8c0.9-0.2,1.7-0.3,2.7-0.4 c0.6-1.5,0.2-3.2-0.1-4.7c-0.8,0-1.5,0-2.2,0c0-0.7,0-1.5,0-2.2c0.8,0,1.6,0,2.4,0.1c0.6-2.3,0.4-4.6-0.1-6.9 c-2.5,0.6-5-0.6-7.4,0.2c0-1.3,0-2.6,0.2-3.9c-0.5-0.2-1.1-0.5-1.5-0.6c-0.9,0.3-1.1,1.3-1.4,2c-0.7-1.1-1.3-2.2-1.9-3.4 c0.7-3-2-6-16.3-29.7c-3-1.7-1.7,3.9-2.1-21.5c-2.5-0.6-3-1.6-16.1-12.2c0.2-14.9-0.5-15.1,0.3-18.5c-0.3-0.6-0.6-1.2-0.9-1.7 c-0.4,6.8-0.8,13.6-0.6,20.4c-3.6,3.2-7.7,5.9-11.1,9.3c-1.4,1.5-3.3,2.4-5.1,3.2c0.2,6.2-0.1,12.5,0.4,18.8c-0.2,0.9-1.3,0.8-2,1.2 c-1.7,2.5-2.7,5.5-4.4,8c-2.9,3.1-7.5,11.7-8.3,14.6c-0.2-0.1-0.5-0.2-0.7-0.2c-0.3,2.4-3.5,9-4.3,10c0.1,0.3,0.3,0.9,0.4,1.2 c-1.1-0.3-2.2-0.6-3.3-0.9c-0.8,0.6-1.7,1-2.3,1.8c-0.4,1-0.5,2.1-0.7,3.2c-1.9-1.1-4.2,0.6-6-0.5c-0.4,1.8-0.7,3.5-0.6,5.4 c0.8,0.3,1.6,0.6,2.5,1c0.2,0.5,0.4,1,0.7,1.5c-1.1,0.3-2.2,0.5-3.2,0.8c-0.2,1.3,0.3,2.5,0.6,3.8c0.6,0.1,1.2,0.3,1.8,0.5 c0.2,0.5,0.5,0.9,0.8,1.4c-0.2,0.2-0.5,0.8-0.7,1c-0.9,0-1.7,0.1-2.6,0.2c0.1,1.3,0.1,2.5,0.4,3.8c1.2,0.5,2.4,1.2,2.8,2.5 c-1.1,0.3-2.2,0.6-3.2,0.9c0,1.2,0,2.5,0.3,3.7c1.1,0.6,2.2,1.1,3.1,1.9c-0.4,0.4-0.8,0.7-1.2,1.1c-0.8-0.1-1.5-0.1-2.2-0.1 c0,1.1,0.1,2.2,0.2,3.4c2.9,2.9-0.1,74.3,1.1,79.2c-3.6-0.7-17,0.7-22.4-0.5c-1.5-0.3-2.9,0.5-4.3,0.9v-1.5c0.3-0.3,0.8-0.6,1.2-0.9 c-0.3,0.1-0.9,0.4-1.2,0.5c-0.1-16.4-1-68.3-4.3-84.1c-1-0.4-102.7-32.7-105.8-31.8c-2.9,7.7-8.8,71.5-8.8,71.6 c0-0.6-0.5-54.6-0.4-55.2c-0.5-2.6-0.3-82-0.1-85.8c-0.5-0.7-0.9-1.5-1.4-2.2c-2.2,1.9-5.4,0.5-8,0.2c0-9.6,0-19.2,0-28.8 c-0.8-0.2-1.5-0.5-2.2-0.7v-1.5c-0.7-0.2-1.4-0.5-2-0.7c-0.3-0.5-0.6-1-0.8-1.5c-0.5,0.2-1.1,0.4-1.6,0.6c0-4.7,0.2-9.4-0.1-14.1 c-1.6-0.4-3.2-0.6-4.9-0.6c-0.1-0.7-0.2-1.3-0.3-1.9c-0.9-0.3-1.7-0.5-2.5-0.8c0.4-0.4,0.8-0.9,1.3-1.3c0-3.5,0-6.9-0.2-10.4 c-0.2-0.2-0.7-0.6-0.9-0.8c0-1.1,0-2.2,0-3.2c-0.4,0-1.1,0-1.5,0c-0.3,0.6-0.5,1.1-0.8,1.7c-2.2-0.3-4.3-1-6-2.3 c-0.2,1.6-0.4,3.1-0.4,4.7c-1.9-0.3-3.8-0.5-5.6-1.1c-0.7-0.6-0.4-1.7-0.5-2.4c-1.7-0.4-3.3,0-4.7,0.9c-0.2-0.1-0.6-0.3-0.8-0.4 c-0.2,0.1-0.5,0.3-0.7,0.4c-0.1,0-0.3,0-0.4,0c0,0.1,0,0.2,0,0.4c0.2,0.1,0.5,0.3,0.7,0.6c-0.2,0.1-0.5,0.2-0.8,0.3 c-0.1,1.1-0.3,2.1-0.6,3.2c0.1,2.6,0,5.3-0.4,7.9c-0.9,0.1-1.7,0.2-2.6,0.2c-0.2,0.6-0.5,1.2-0.7,1.8c0.9,0,1.7,0,1.7,1.3 c-0.5-0.3-1-0.7-1.5-1c0,1.6-0.3,1.4-1,3.4c1,2.6,0.3,5.3,0.5,8c-0.5,0-1.4,0.1-1.8,0.1c0,0-0.1-0.1-0.1-0.1 c-0.2,0.5-0.5,0.9-0.8,1.4c0,0.1,0,0.2,0,0.3l-0.2-0.1c-0.1,0.1-0.2,0.3-0.3,0.4c0.2,0.3,0.3,0.7,0.5,1c-1.3,0.2-2.4,0.8-2.4,2.3 c-0.1,0.1-0.4,0.2-0.5,0.3c0,0.7,0.1,1.4,0.2,2.1c-0.5-0.1-0.9-0.2-1.4-0.3c0,0.3,0.1,1,0.1,1.4c-2.6-0.1-5.2-0.2-7.7-0.3 c-0.2-0.2-0.4-0.5-0.6-0.8c-1.1-0.1-2.2-0.3-3.3-0.7c0,0.1,0,0.2,0,0.3c-0.4,0-1.2-0.1-1.6-0.1c-0.2,0.5-0.4,1-0.6,1.5 c-1.4,0-2.8-0.1-4.2,0.1c-1,0.9-0.7,2.4-1.1,3.6c-2-0.7-4.1-0.5-6.1-0.4c0-2,0.2-4.1-0.4-6.1c-0.4,0-1.3,0-1.7,0.1 c-0.3-0.7-0.5-1.4-0.7-2c-0.8-0.5-1.5-1.1-2.2-1.6c-0.6-0.3-1.4-0.3-1.8-0.8c-0.2-3.8,0.2-12.5,0.1-13.1c-0.7-1.2-2.3-0.8-3.5-1 c-1.1,0.1-1-1.3-1.3-2c-1.1-0.1-2.2-0.1-3.2-0.2c0.4-0.6,0.8-1.2,1.3-1.8c0.1-3.2,0.1-6.5,0-9.7c-1.4-1.2-1-3.1-1.1-4.7 c-2.6-0.3-5.3,0.9-7.8-0.2c-1.4-0.6-11.5,0.9-14.6,0.9c0,0,0,0,0,0c-0.3,0-0.6,0-0.9,0c0,0,0,0,0,0c-3.5,0.8-7.2,0.7-10.8,1.4 c-1.9,3.9-1,8.2-1.2,12.4c0.3,0.2,0.9,0.7,1.2,0.9c-0.2,1.1,0.3,2.6-0.8,3.4c-2.4,0.1-4.9-0.4-7.3,0.4c0,0,0,12.7,0.2,14.6 c-0.7-0.6-1.3-1.3-2.2-1.5c0,1.5-0.9,2.6-2.4,2.6c0,0.6,0,1.2,0,1.8c-0.4,0.1-0.9,0.3-1.3,0.5c-0.5,1.3-1.2,2.5-2.2,3.5 c1.2,5.6,0.7,0.5,0.8,26c-2.6-1.1-5.4-0.3-8.1-0.6c-2.5,3.3-0.1,17.6-1.7,36.4c-0.1,0-0.2,0-0.3-0.1v3.6c-61.5,0-57.2-0.1-58.1,0.1 c-0.8,3.7-0.6,7.5-0.6,11.3c0.7,0.5,1.4,1,2.1,1.5c0,0.6-0.9,0.8-1.2,1.2c0.4,0,1.3,0.1,1.7,0.2c0,1.6,0.2,3.3-0.1,4.9 c-0.2,0.1-0.6,0.4-0.8,0.6c0,0.6-0.1,1.2-0.1,1.8c0.3,0.6,0.7,1.3,1.1,1.9c-0.3,0.1-0.8,0.3-1,0.4c-21.6-4.1-20.4-3.6-21.1-4.4 c-0.2-4,0.3-30.9,0-32.6c0.1-0.5,0.2-0.9,0.3-1.4c-0.1-0.5,0.4-119.8,0.2-120.9c0.5-2.8,0-5.8,1.6-8.3c-2.3,0.3-4.4,1.5-6.5,2.4 c-0.3-0.2-0.8-0.5-1.1-0.6c-2.2,0.4-4.5-0.1-6.7,0.3c-0.2-0.3-0.7-0.8-0.9-1c0.1-0.4,0.2-0.9,0.4-1.3c-3.4-0.9-6.9-0.7-10.3-0.7 c0.2-3.4,1.3-6.7,1.5-10.1c-5.4-1-27.6-1.5-28.5-1.3c0.1,4.5,2.7,8.9,1.4,13.4c-0.8,0.1-1.5,0.2-2.2,0.3c0-4.7,0-9.3,0-14 c-4.3-0.3-8.6-0.7-12.9-1c0,3.4,0,6.9,0,10.3c-2.3,0-4.6,0-6.9,0c-0.3-0.2-0.8-0.7-1-0.9c-0.2,0.2-0.7,0.7-0.9,0.9 c-5.3,0-10.7-0.1-16,0c0,4-0.1,8-0.1,12c0,0,0,0,0,0c0.1,0.9-0.3,26.9-0.4,31.9c-2.8,4.8-5.8,9.5-8.8,14.1c0.1,0.2,0.3,0.6,0.4,0.8 c-0.1,0.6-0.2,1.3-0.2,1.9c-0.3,0.1-0.9,0.3-1.2,0.4c-0.3,0.6-0.5,1.2-0.8,1.8c-0.8,0.3-1.5,0.5-2.2,0.8c-0.3-0.9-0.5-1.8-0.6-2.8 c-0.2-0.1-0.3-0.2-0.5-0.3c-1.4,0.5-3.3,0.4-4.7-0.6c-0.3-0.1-5.8-0.2-7.6-0.5c-1-1.2-1-2.9-1.9-4.1c-0.8-0.1-1.7-0.3-2.2,0.3 c-0.9,0.5,0,1.6,0.1,2.4c-0.8,0.4-1.7,0.7-2.5,1c-1.1-0.5-14.2-0.4-15.2-0.4c-2.7,0.9-5.4,1-8.2,1.5c0,30.9,0.1,30-0.4,32.1 c0.4,2.5,0,4.9,0.3,7.4c0.7,2.2-3.6,1.5-8.7,1.6c0,0-1.2,100.1-1.1,100.6c-0.3,4.5-0.4,9.1-0.3,13.7c-3.2,0.2-6.5,0.1-9.7,0.5 c0,0.4-0.1,1.1-0.1,1.5c-2.7,2.2-1.2,5.9-1.6,8.9c-0.2-0.2-0.6-0.5-0.9-0.7c-3.2-6.3-20.1-32.3-20.7-33.5 c-0.1-8.5-0.1-66.1,0.4-75.7h-11.3c-0.3,0.4-0.6,0.7-1,1c0-0.3,0-0.7,0-1h-10.6c-3.2,4.3-14.4,25.2-19.2,30.9 c0-1.6,0.5-102.5,0.8-104.2c-0.2-1-0.3-2.1-0.4-3.1c-3.4,0-6.7,0-10.1,0c0.2-0.7,0.4-1.4,0.6-2.1c-1-0.1-15.3-1.6-22.2,0 c-0.2,0.6-0.4,1.3-0.6,2c-3.2-0.9-6.5-0.2-9.7-0.4c-0.1,1.1-0.3,2.1-0.4,3.2c0.3,1.3-1.1,161.2-1.9,165 c-0.7-1.2-17.1-29.2-18.5-32.7c-1.4-0.7-2.9-1.1-4.3-1.6c0,0.4-0.1,0.7-0.1,1c-1.7-0.4-3.4-0.7-5.2-0.6c0,1.7,0,3.5-0.2,5.2 c-1.8-1.6-2-4.4-4.2-5.7c-2.6,0-5.3,0-7.9-0.6c-0.6,2.3-1.9,137-2,140.3c-2.3-0.7-13.6-6.1-14.6-6.6c-1.2-0.2-2.2-0.8-3-1.8 c-0.4,0.1-0.8,0.1-1.2,0.2c-0.3-0.4-0.6-0.9-0.9-1.3c0.2-1.9,0-3.7-0.1-5.5c0.3-1.5,0.9-13.2-0.6-15.1c-0.8-1.1-2.2-1.5-3.2-2.2 c-0.3-1-0.4-2-0.6-3c-0.8,0-1.6,0-2.4,0c-1.2,0.4-2.3,0.5-3.5,0c-1.9,0.1-3.7-0.1-5.5-0.2c-1.8,0.9-3.8,1.1-5.5-0.1 c-1-0.1-1.9-0.3-2.8-0.3c-0.2-0.2-0.5-0.5-0.6-0.7c-1-0.4-2.3-0.6-2.8-1.6c-1.6-2.4-3.3-4.7-4.6-7.3c-1.8-0.8-32.9,0.5-33.9,0.6 c-0.6,0.6-0.7,1.5-1,2.2c0.2,0.8,0.3,1.6,0.5,2.5c-3.6,0.4-7.2,0.7-10.8,0.7c-0.7,0.7-0.8,1.8-1.2,2.7c-1.4,0-2.8-0.1-4.2-0.2 c0.4-0.8,1.3-1.2,2.2-1.5c-0.2-0.5-0.5-1.5-0.6-2.1l1.2-0.1c-0.4-0.7-1.2-1-2-1c0.4-0.6,0.9-0.9,1.6-1.2c-0.1-0.1-0.1-0.1-0.2-0.2 c-0.3,0-0.7,0-1,0.1c0-0.6,0-1.2-0.1-1.9c-0.4-1.1-0.3-0.1-0.3-20.9c-0.8,0.1-1.7,0-2.5-0.2c-0.7,0-1.5,0.1-2.2,0.4 c0-0.7-0.1-1.4-0.3-2.1c-1.2-1.6-1-3-1-6.3c0,0,0,0-0.1-0.1c0,0,0-0.1,0.1-0.1c0-0.5,0-7.9,0-8.3c-1.5-0.3-3-0.2-4.4-0.2 c-0.7-2.3-0.3-4.8-0.6-7.2c-0.6-0.7-1.3-1.3-2-1.9c-0.3,0.1-0.9,0.4-1.2,0.5c-0.3-0.1-0.7-0.1-1-0.2c-1.2,0.3-2.5,0.2-3.6-0.2 c-0.5,0-0.9,0-1.4,0c-0.1-0.3-0.2-0.6-0.3-1c-0.9-0.8-1.5-2.1-1.5-3.7c0-136.1-1.5-129,3.6-130.5c0.4-1.5,0.5-3.1,0.4-4.7 c-11.9,0-13.8,0.6-15.6-2.2c-2.6-0.2-5.1-0.6-7.7-0.4c0-1.6,0.1-3.2,0.5-4.8c-0.1-0.2-0.2-0.7-0.3-1c3.5-33.7-1.9-40.8-18.4-51.1 c0.5-2.3-0.8-16.1-0.6-19.5c0.2-1-0.3-2.4-1.6-2.1c-0.7,1.3-0.1,3-0.5,4.4c0,0.2,0.1,0.6,0.1,0.7c-0.9,5.1-0.6,10.2-1.4,15.3 c-7.8,1.7-8.1,3.5-11.7,6.4c0.1,0.3,0.3,0.7,0.4,1c-0.7,0.7-1.3,1.3-2,2c-0.8,0.4-1.6,0.9-2.4,1.4c-0.1,1.2-0.2,2.4-0.3,3.6 c-0.3,0.1-0.9,0.3-1.2,0.4c-0.7,2.4-1.2,4.9-1.6,7.4c0.1,0.4,0.2,0.8,0.3,1.3c-1.2,2.1-0.6,4.6-1,7c0.3-0.2,0.8-0.5,1.1-0.7 c-0.4,1.7-0.9,5.4-1.7,7.1c-1.2,2.2,0.4,10.7,0.1,12.1c-0.4,1.4,0.6,2.7,0.9,4c-0.4-0.1-1.1-0.2-1.5-0.2c0.2,0.2,0.7,0.6,0.9,0.8 c-0.3,0.8-0.5,1.6-0.8,2.3c0.4-0.1,1.2-0.3,1.6-0.4c1.3,0.6,3,0.8,3.4,2.4c-3.3-1-11.7-0.4-16.2,0.6c0.1,0,0.2,0.1,0.2,0.2 c0.4,0.1,0.8,0.2,1.1,0.2c-0.2,1.1-0.4,4.5-3.2,3.7c-0.1,0.1-0.3,0.1-0.3,0.1c0-0.1,0-0.2,0-0.3c-0.1,0-0.1-0.1-0.2-0.1 c-0.8,0.7-2.1,0.7-2.9,0c0,0.1,0,0.3,0,0.4c-0.4,0-1.1-0.1-1.4-0.1c0-0.6,0-1.3,0.1-1.9c-0.9-1.7-0.6-2.9-0.6-8.3c0,0,0,0,0,0 c0,0,0,0.1,0-3.4c0,0,0,0,0,0c-0.1-15.4,0.5-38.1,0.6-39.1c0.3-0.1,0.8-0.4,1.1-0.6c-1-1.2-1.3-2.7-1.4-4.2 c-5.1-3.6-24.2-8.3-39.4-8.5c0-0.9-1.1-20.5-1.1-21.2c-0.7,0.2-1.3,0.4-1.9,0.6c0.1,3.5-1,20.3-1.2,20.9c-5.6-1.2-32.9,3.8-39.2,8.8 c0.6,0.8,1.2,1.6,1.8,2.4c-0.4,0.2-1,0.6-1.4,0.7c-0.7-0.2-1.4-0.3-2-0.5c0-1,1.4-90.6,0.6-93c-3.2,0.1-37.8-1.2-38.5-2.8h-16.3 c0,0,0,0,0,0.1c-2.2-0.1-4.5,0.2-6.5-0.6c-0.5,0.2-0.9,0.4-1.3,0.6c-0.2,0.7-0.5,1.4-0.7,2.2c-0.4,0-1.1-0.1-1.4-0.1 c-0.4-1.4-1.8-41.2-1.8-42.2c-5.8-0.4-11.5-1.7-17.4-2.3c0.2-23.8-0.3-31.1,0.6-39.3c-1.2-0.3-2.4-0.6-3.6-1 c-0.4-1.6-0.3-3.3-0.2-4.9h-96.5c0,0.1,0,0.3,0,0.4c0,0-1.8-0.4-23.3-0.4c0,0.2,0,0.3,0,0.4c-5.7-0.5,3.8-0.4-18.3-0.4 c0,2.3,0,4.5,0,6.8c-1,0.1-2.1-0.1-3,0.3c-0.9,1.2-1.4,39.3-1.3,40.3c-0.2,0.6,0.3,1.6-0.5,1.9c-1.8-0.2-3.7-0.5-5.5-0.1 c-3.3,0.7-6.7,0.3-10,0.5c-0.3,0.2-1,0.5-1.4,0.6c-0.1,8.1-9.8,210.1-9.9,212c0.9,1.8,0.8,3.6-0.4,5.3c0,0.9,0,1.8,0,2.6 c-0.4-0.5-0.7-1-1.1-1.5c-0.3,0.2-0.6,0.4-0.8,0.5c-0.2,0.2-0.5,0.4-0.8,0.6c-0.2,0-0.3-0.1-0.5-0.2c-0.2,0-1,0.1-2.1,0.3 c0,0.1-0.1,0.2-0.1,0.3c-0.2-0.1-0.4-0.1-0.6-0.1c-2.5,0.5-4.4,0.9-5.8,0.3c-1,0.2-1.9,0.3-2.9,0.5c-1.2-5.9,1.9-77.5,0.2-80.5 c-3.1-0.3,0.1,1.1-16.8-2c0,0.1,0,0.2,0,0.4c-2.8-0.4-5.8-0.1-8.5-1c0.2-1.2,0.6-2.5,0.3-3.8c-0.6-0.9-1.8-0.7-2.7-0.8 c0-1.5,0-3-0.1-4.5c-0.2,1.5,0,3.2-0.8,4.6c-2.2-0.1-4.4,0-6.6-0.6c-0.7-3.9-1.2-7.9-2.2-11.7c-0.3-0.2-0.8-0.7-1-0.9 c6.5-4.7,6.8-20.9-4.7-25.5c0.5-5.4-10.9-50.1-12.3-55.3c0.2-0.4,0.6-1.3,0.7-1.7c-3.1,1.4-6.6,1.7-10,1.7c-0.7,1.2-1.7,2.1-3,2.7 c0.1,0.2,0.3,0.6,0.4,0.7c-0.7,0.2-1.3,0.5-1.9,0.8c-0.1,0.3-0.4,0.9-0.5,1.2c-1.3,0.9-2.5,1.7-3.9,2.3c-0.5-48.2,2.6-53-1.8-64.9 c-0.9-0.1-1.6-0.4-2.2-0.8c0,0.1,0,0.1,0,0.2c-2-1-4.3-0.4-6.3-1c-1.8-0.7-3.3,0.6-4.5,1.7c-2.1-1.2-7.1-5.4-9.4-0.7 c-2.5,4.6,0.5,325.3-1.5,328.4c0.5,1.8,0.9,3.6,0.3,5.4c0.1,0.1,0.4,0.4,0.5,0.5c-0.4,0.3-1.1,0.9-1.4,1.2c0.5,0.5,0.9,1,1.4,1.5 c-0.7,1.6-0.1,13.3-0.1,15.3c-0.5-0.2-1.4-0.6-1.9-0.9c0.2,1.1,1.7,2.9,0,3.4c0.5-0.1,1.4-0.2,1.8-0.3c0,1.3,0,2.6,0.1,4 c-0.8,0.1-1.7,1-2.4,0.1c-0.3-0.9-0.4-1.8-0.5-2.7c-0.2,1.7-0.2,3.4,1.4,4.4c-0.2,0.2-0.6,0.5-0.7,0.7c0.8,0.1,1.6,0.2,2.3,0.6 c-0.1,0.3-0.3,1-0.5,1.3c0.1,0.1,0.3,0.3,0.4,0.4c0,0.6-0.1,1.7-0.2,2.3c-0.4,0-1.3-0.1-1.7-0.1c0,0.1,0,0.2-0.1,0.3 c0.4,0,1.1,0.1,1.5,0.1c-0.2,0.5-0.5,1.5-0.6,2c-0.5-0.1-1.6-0.4-2.1-0.5c1,0.5,2,1,3,1.4c-0.1,1.3,0.7,4.1-1.5,3.8 c-0.2-0.1-0.6-0.4-0.8-0.6c-0.2-0.7-0.4-1.4-0.5-2.1c0,0.8-0.1,1.6-0.2,2.4c0.6,0.9,1.2,1.7,1.6,2.6c0.5,0.3,0.9,0.5,1.4,0.8 c0,1,0,2,0,3c-0.9,0.2-1.8,0.5-2.7,0.8c0,0.6,0,1.3,0,2c-0.4,0.8-0.5,1.7-0.5,2.5c0.3,0.5,0.5,1.1,0.8,1.6c-0.4,0.1-1.2,0.2-1.6,0.2 c0.3,0.2,1,0.5,1.4,0.7c-0.4,0.3-0.8,0.7-1.2,1c0.3,0.1,0.9,0.2,1.2,0.3c-1.4,1.8-1.1,4.2-1.1,6.3c-0.4,0-1.1,0.1-1.4,0.2 c0.5,0.3,1,0.6,1.4,1c0.1,0.9,0.2,1.8,0.3,2.7c-0.2,0.2-0.7,0.7-1,1c0.1,1.8,0.1,3.6,0.2,5.5c-0.9,0-1.8,0-2.8,0.1 c-1.1-3.1,0.9-97,1-98c0.5-4.6-1.8-8.9-2.2-13.5c-1.1-1.2-3.3-0.4-4.8-1c-7.6-0.1-43.1-1.1-46.9-1.9c0-0.3-0.1-1-0.2-1.3 c-0.4-0.4-0.8-0.9-1.2-1.3c-1.8,0-3.6,0-5.4-0.1c0.2,0.3,0.6,0.8,0.8,1.1c1,0,2,0,2.9,0.1c-0.6,1.8-2.6,1.6-4,2 c-0.1-1-1.6-14.2-1.5-23.3c-1.8-2.1-0.2-5.1-0.6-7.5c-0.5-0.6-1.3-1-1.8-1.6c-0.4-0.8-0.5-1.7-0.7-2.6c1,0.5,2,1.1,3,1.7 c0-0.4,0-1.2,0.1-1.7c-1.3-0.9-2.5-1.9-3.7-3c-0.3-3.8-3.5-6.9-2.7-10.8c0-0.3,0.3-9.2,0.1-22.7c-1,1.6-1.2,11.6-0.8,13.1 c-1.6,1.1-3.2,2.2-5,2.9c-0.1-0.6-0.3-1.2-0.4-1.8c-1-0.1-2-0.1-3.1-0.1c-0.4-0.4-0.8-0.8-1.2-1.2c1-4.4,0.8-9-0.3-13.4 c-1.1,16.3,0.7,16.1-0.9,26.2c-1.8-2.3-3.5-4.7-5.7-6.6c-2.4,1.8-3.8,4.4-5.5,6.7c-0.4-5.2,0.7-88.4,2-93.5 c-0.7-2.4-0.5-11.3-0.1-13.2c-0.6-1.9,0.3-21.9,0.6-22.9c-0.6-2.5-0.6-5.2,0.1-7.7c-0.5-1.7,0-20.9,0.4-22.9 c-0.8-2.9,0.2-5.9-0.1-8.8c0.1-0.2,0.3-0.6,0.4-0.8c-0.2-0.5-0.4-1-0.6-1.5c1.8-6.8-0.8-47.5,2.1-50.2c0.2-35,1-62.6-14.6-94.5 c0.2-0.3,0.6-0.8,0.8-1.1c-0.6-0.4-1.2-0.8-1.8-1.1c-1.8-8.4,0.3-2.7-5.1-17c-1.8-4.5-5.5-8.1-6.6-12.9c-1.8-1.9-1.6-4.5-1.1-6.8 c0-2.7-0.9-5.3-1.6-7.9c-5.9-6.1-11.1-6.3-16,1.1c-0.7,3.3-1.7,6.6-1.2,10c-1.4,3.6-2.2,7.7-5.4,10.2c0.2-1.7,0.8-3.5,0.2-5.2 c0.3-1.4,0.4-2.8,0.4-4.2c-0.3-0.2-0.9-0.6-1.2-0.8c-0.1-7.7,0.8-9-2.3-13.9c-0.8,0.6-1.8,1.1-1,2.3c-0.3-0.1-0.9-0.2-1.2-0.2 c0.4-6.6,0-13.2,0.2-19.9c0.4-3.3,0.9-6.9-0.3-10.1c-1.8,2.7-0.6,39.3-2,45.2c-0.4,0.5-0.8,0.9-1.1,1.4c0.6,0.3,1.1,0.6,1.7,0.8 c-0.3,0.7-0.6,1.4-0.9,2.1c0.5,1,0.6,2.1,0.2,3.2c0.2,1.9-0.3,3.9,0.4,5.8c3.7,2.2-0.2,4.1-1.5,11.2c-0.3,1.3-0.4,3.3-2.1,3.5 c0.1,0.7,0.1,1.3,0.2,2c-1.2,1.5-1.8,3.5-2.7,5.2c-8.2,17.3-9.5,29.5-10.7,34.4c0.2,0.9,0.1,1.6,0.1,4.6c0.1,0.3,0.2,0.6,0,0.9v6.6 c0,0,0.1,0,0.1,0c0.1,0.7,0.2,1.3,0.2,2c-0.1,0-0.2,0.1-0.3,0.1v5.4c0.2,0.1,0.3,0.2,0.4,0.2c-0.1,0.2-0.3,0.4-0.4,0.6v6.1 c0.4,0,0.8,0,1.2,0c-0.3,0.9-0.3,2-0.8,2.8c-0.1,0.1-0.3,0.2-0.4,0.2v4.6c1.1,0.6,0.3,1.9,0,2.8v4.7c0.2,0,0.3,0.1,0.5,0.1 c-0.1,0.9,0.1,1.9-0.5,2.7c0,5.9-0.2,6.4,0.3,7.3c-0.1,0-0.2,0.1-0.3,0.1v5c0.1,0,0.2,0,0.3,0c-0.7,5.2,0.2,6.6-0.8,8.6 c0,23.2,0.4,22.9-1,24.6c0.2,20.1-0.7,24-0.5,40.4c-0.1,0.1-0.2,0.2-0.3,0.4c0,3.2-0.1,2.7,0.1,3.3c-0.2,1.1-0.1-4.7-0.1,95.6 c0,3.1-2.2,4.8-4.6,5c-0.1,6.7,0,13.4,0.3,20c-0.2,0-0.6-0.1-0.8-0.2c0,0-1.4,94.1-1.4,94.1c0.2,0.9,0.5,23.7-0.5,24.7 c-0.1,1.8-0.2,3.7-0.1,5.5c-2.1-0.3-4.3-0.6-6.4-0.4v-30.6c0.2,0,0.3,0,0.5-0.1c0-7.4,0.5-14.8,0.6-22.2c-4.7-1.2-23.9-0.3-26.7-1.9 c0.6-3.1,0.2-6.2,0.6-9.3c-0.3-0.7-0.5-1.5-0.7-2.2c-0.3-0.1-0.5-0.1-0.8-0.2c-0.1-3.9-1.3-7.8-0.5-11.7c0.3-1.4-0.5-2.7-0.9-4 c0.2,0,0.6,0,0.9,0c0,0,0-0.1,0-0.1c-0.6-0.2-1.1-0.6-1.2-1.4c0,0-5.9-22.2-5.9-22.2c-0.4-8.9,1.4-20.9-0.3-25.2 c-0.1,4.5-1,8.9-0.4,13.4c-1.5,1-3,1.9-4.5,2.9c-0.3-0.6-0.5-1.1-0.8-1.6c-1.5-0.5-3-0.4-4.5-0.8c0,0-0.2-18.6-0.2-18.6 c-1.6,25.7,0.1,24.1-1.4,31.1c-1.1-2.2-2.4-4.3-4.3-5.9c-0.7,0.3-1.3,0.5-2,0.8c-3,4.5-5.4,9.4-8.5,13.8c-0.3,0.1-0.9,0.3-1.1,0.4 c-0.7,0.8-1.6,1.4-2.5,1.8c-0.8,2-1.8,4-2.7,6c0.4,0.1,0.7,0.3,1.1,0.4c0,0.3-0.1,1-0.1,1.4c-0.7,0.6-1.4,1.2-2.1,1.8 c0.4,2.7-0.9,5.2-1.7,7.8c-0.2,2.7-2.2,14.7-7.1,16.2c0.1,0.2,0.2,0.5,0.3,0.6c0.6-0.4,1.3-0.7,1.9-1c-0.1,1-0.3,1.9-0.4,2.9 c-1.9-1.8-4.6-0.8-6.9-0.9c-0.4-0.3-0.7-0.7-0.8-1.2c-1.2,0-4.3,0.1-5.4-0.2c-0.1,0.2-0.2,0.4-0.3,0.6c-0.7-0.2-1.3-0.4-1.9-0.6 c-1.7,0.2-3.4,0.2-5.1,0.2c0-3.4,2-117.7,2.5-122.6c-0.3-1.6,2-104.7,2.7-107.9c-1-5.4,1-53.4,1.2-54.3c-0.7-2.7-0.4-5.4,0.1-8.1 c-0.3-1.4,0.4-82.9,0-84.1c-0.6-0.5-0.9-1.3-1.9-2.7c-0.1-0.3-0.2-0.9-0.3-1.1c-5.7-9.2-14.5-32.7-21.1-49.5c0.3,0.5,0.7,1.1,1,1.6 c-1.7-2.7-10.1-35.6-11.5-36.7c0,0,0,0,0,0c0,0,0,0,0,0c-0.3-0.3-0.7-0.5-1.2-0.7c0.2-0.9,0.3-1.8-0.4-2.5c-0.1-1-2.8-17.8-1-26.3 c-0.2-1.1-0.4-2.2-0.5-3.4c-0.2,0.2-0.8,0.6-1,0.9c-0.3-0.2-0.9-0.7-1.2-0.9c0.1,0.9,0.1,1.8,1.2,2.1c0.7,28.7-3,22.5-3.6,32.4 c-0.6,0.5-0.7,0.9-1.4,1.9c0,0,0.1,0.1,0.1,0.1c-41.3,95.2-37.9,88-38.9,89c-2.1,9.3-2,178.4-2,179.4l-0.2-0.1v2.5 c0.1,0,0.3-0.1,0.4-0.1l-0.4,6.3c0,0,0,0,0,0v0.3l0.3-0.6c-0.5,7.9-0.4,15.9,0.2,23.9l-0.5,0v4c0.1,0,0.2,0,0.3,0 c0,0,0.1,39.9,0.1,39.9c-0.9-0.1-1.8-0.2-2.7-0.4c0-0.1,0-0.1,0-0.2c-0.1,0-0.3,0-0.4,0c0,0.1,0,0.2,0,0.3 c-19.1-0.3-22.1-1.8-45.9,2.4c-0.1,0.2-0.2,0.5-0.3,0.7c3.4,2.2,7.7,1.2,11.5,1.9c5.4,1,10.9-0.3,16.4-0.8c0.4,1.5,0.5,3,0.5,4.6 c-0.9,0.1-14.7,1.9-15.9,2.3c0.3,0.7,0.6,1.3,0.9,2c5.1,0.4,9.9-1.5,14.9-1.7c0,2.1,0.2,4.3-0.1,6.4c-0.6,1.6-0.8-0.2-10.2-0.4 c0.1,2.4,0.2,5-1.3,7c-0.7,0-17.8,2.2-18.2,2.3c-1.5-0.4-3.2,0-4.5,1c-0.2,0-0.5,0.1-0.7,0.1c0,79.1,0.5,74.5-1.1,75.3v3 c-0.2,0.6-0.3,1.2-0.5,1.8c-2.6,0.6-5.2,1.2-7.9,1c-0.1-2.9,0.4-22.8,0.5-23.7c-0.5-0.5-1.1-0.9-1.6-1.4c0.2-21.8,0.5-27.2,0.5-27.2 c-1.2-0.8-2.2-1.7-3.2-2.8c-1.9,0-4.5-0.1-5.2-2.2c-1.7-0.5-3.4-0.6-5,0c-0.2,0.3-0.6,0.8-0.9,1c-1.4,0-2.8,0-4.2,0 c-0.5-2.5,0-5.1-0.4-7.6c-1,0-2-0.1-3-0.1c-0.2-0.3-0.5-1-0.7-1.3c0.3-3.9,0.4-7.8,0.4-11.7c-3.9-0.4-8.5,1.1-11.9-1.5 c0.5,0,1.6-0.1,2.2-0.2c0.5-0.7,0.5-1.5,0-2.2c-3.1,0.1-6.2,0-9.2,0v-1.1c9.8,0.6,14.3-1.8,18.6-4.2c-1-0.1-36.3-1-38.4-1.4 c-0.8,0.3-1.7,0.5-2.5,0.8c-0.2-0.2-0.6-0.5-0.7-0.7c-1.4,0.9-3,1.2-4.6,1.2c1.7,4.9-0.2,20.6,0.1,26c0.1,0.2,0.4,0.7,0.5,0.9 c0-0.4,0.1-1.2,0.1-1.6c0.8,0.8,1.6,1.5,2.6,2.1c-0.5,0.5-1,1-1.5,1.5c-1.6-0.2-3.3-0.3-4.9-0.2c-0.7,1-1.7,1.6-2.7,2.2 c-0.1,2.2,0.2,4-0.3,5.9c0,0,0.1,0,0.1,0c0.1,2.1,0.1,4.2,0.1,6.4c-3.4,0.1-6.7,0.8-10.1,1c-0.3,0.4-0.6,0.8-0.9,1.3 c-0.4-1.3-1.9-0.9-3-1c-0.1,2.7,0.1,5.4-0.5,8.1c0.4,2.9-0.7,5.9,0.3,8.8c0.8,0,1.5,0,2.3,0c0.2-0.6,0.4-1.2,0.7-1.7 c0.3,0.5,0.7,1,1.1,1.5c0.8-0.2,1.6-0.5,2.5-0.6c1.2,0,2.4,0.2,3.5-0.4c0.2,0.2,0.7,0.5,1,0.6c0.9-0.4,1.7-0.8,2.6-1.1 c-0.1,2.3-0.2,4.7-0.4,7c-2-0.2-12.6,0.6-14.3,1.8l-0.1-0.5c-0.2,0.6-0.3,1.2-0.5,1.8c0,0-2.4,55.4-1.7,59.1 c-0.2,0.9-0.4,1.8-0.7,2.7c0.2,0.2,0.3,0.4,0.5,0.7c-0.6,2.7-1.5,42.7-1.5,43.7c-1.6,1.5-4.1,0.3-6.1,0.5c-1,0.1-17.3,0.4-19.4,1.4 c2.3,2.2,6.9-0.6,8.1,3.1c-4.8,0.5-9.5-0.6-14.2-0.7c-0.6,0.5-1,1.4-1.8,1.7c-2.3,0.1-4.6-0.1-6.8,0.3c-0.1,0.1-0.2,0.2-0.4,0.3 c2.1,0.6,1.5-0.4,1.5,35.8c0,2.1-2.4,2.7-3.7,1.7c-0.7,0.7-1.8,0.8-2.6,0.4c-1,0-2.1,0-3.1-0.1c-0.7-1.2-1.1-2.6-1.7-3.8 c0.4-3.2,1.7-2,0.5-12.9c-0.4-0.7-1-1.2-1.5-1.8c0.3-1.8,0.7-10.5,0.4-12.2c-0.2-0.9-1.2-1-1.8-1.4c-0.1-2.2-2.1-1-3.8-5.1 c-5.4-1.6-5.4-1-7.8,2.2c-5.8-0.5-7.4-5.3-19.5-5.1c-1,0.8-1.7,0.4-3.8,0.2c0,0.1,0,0.2,0.1,0.3c-0.1-0.1-0.3-0.2-0.4-0.3 c-2.1-0.1-4.5-0.1-9.3-0.1v388.8h2560v-326.6C2559.2,1135.7,2558.3,1135.1,2557.6,1135.8z"/> </svg>